# xmcd
#
# Track frame offsets:
#	150
#	17892
#	34692
#	48617
#	63467
#	78365
#	92637
#	104472
#	118950
#	134830
#	149072
#	162830
#	173830
#	187955
#	203475
#	217195
#	230712
#	242537
#	255015
#	269245
#	284190
#	297925
# Disc length: 4143 seconds
# Revision: 1
# Processed by: cddbd v1.5.1PL0 Copyright (c) Steve Scherf et al.
#
# Submitted via: libkcddb 0.10
#
DISCID=5d102d16
DTITLE=Banda Sayonara - Momentos e lembranças
DYEAR=1900
DGENRE=
TTITLE0=Quem não te quer sou eu
TTITLE1=Desejos
TTITLE2=Solidão
TTITLE3=Volta meu amor
TTITLE4=Declaração de amor
TTITLE5=Tarde demais
TTITLE6=Meu amor é todo seu
TTITLE7=Stand-by (Louco coração)
TTITLE8=Lá vou eu
TTITLE9=Momentos e lembranças
TTITLE10=Fogo e paixão
TTITLE11=Sem você não dá
TTITLE12=Amor sem fim
TTITLE13=Outra vez
TTITLE14=De volta ao começo
TTITLE15=O sonho acabou
TTITLE16=Te quero num bis
TTITLE17=Amor safado
TTITLE18=Quando eu me for
TTITLE19=A estrela que brilha
TTITLE20=Mel na minha boca
TTITLE21=Coração assustado
EXTD=
EXTT0=
EXTT1=
EXTT2=
EXTT3=
EXTT4=
EXTT5=
EXTT6=
EXTT7=
EXTT8=
EXTT9=
EXTT10=
EXTT11=
EXTT12=
EXTT13=
EXTT14=
EXTT15=
EXTT16=
EXTT17=
EXTT18=
EXTT19=
EXTT20=
EXTT21=
PLAYORDER=
